# xmcd
#
# Track frame offsets:
#	150
#	20938
#	71561
#	88673
#	123833
#	165563
#	179673
#	189673
#	226700
#	262270
#	281606
#
# Disc length: 4143 seconds
#
# Revision: 0
# Processed by: cddbd v1.5.2PL0 Copyright (c) Steve Scherf et al.
# Submitted via: EZCDAudioConverter 1.3.4.1
#
DISCID=9e102d0b
DTITLE=Howie B - Down With The Dawn
DYEAR=1900
DGENRE=
TTITLE0=Frankie's City
TTITLE1=Run Always
TTITLE2=Kazoo
TTITLE3=Down With The Dawn
TTITLE4=Can I Close My Eyes
TTITLE5=Ganzi
TTITLE6=Heaven (Part 1)
TTITLE7=Authentication
TTITLE8=Master Inch Mile Haunch
TTITLE9=Night Nice
TTITLE10=Summers Flower
EXTD=
EXTT0=
EXTT1=
EXTT2=
EXTT3=
EXTT4=
EXTT5=
EXTT6=
EXTT7=
EXTT8=
EXTT9=
EXTT10=
PLAYORDER=
